HIERARCHY
ROOT Hips
{
	OFFSET 0.000000 0.000000 0.000000
	CHANNELS 6 Xposition Yposition Zposition Zrotation Yrotation Xrotation 
	JOINT LHipJoint
	{
		OFFSET 0.000000 0.000000 0.000000
		CHANNELS 3 Zrotation Yrotation Xrotation
		JOINT LeftUpLeg
		{
			OFFSET 1.363060 -1.794630 0.839290
			CHANNELS 3 Zrotation Yrotation Xrotation
			JOINT LeftLeg
			{
				OFFSET 2.448110 -6.726130 0.000000
				CHANNELS 3 Zrotation Yrotation Xrotation
				JOINT LeftFoot
				{
					OFFSET 2.562200 -7.039590 0.000000
					CHANNELS 3 Zrotation Yrotation Xrotation
					JOINT LeftToeBase
					{
						OFFSET 0.157640 -0.433110 2.322550
						CHANNELS 3 Zrotation Yrotation Xrotation
						End Site
						{
							OFFSET 0.000000 0.000000 0.000000
						}
					}
				}
			}
		}
	}
	JOINT RHipJoint
	{
		OFFSET 0.000000 0.000000 0.000000
		CHANNELS 3 Zrotation Yrotation Xrotation
		JOINT RightUpLeg
		{
			OFFSET -1.305520 -1.794630 0.839290
			CHANNELS 3 Zrotation Yrotation Xrotation
			JOINT RightLeg
			{
				OFFSET -2.542530 -6.985550 0.000000
				CHANNELS 3 Zrotation Yrotation Xrotation
				JOINT RightFoot
				{
					OFFSET -2.568260 -7.056230 0.000000
					CHANNELS 3 Zrotation Yrotation Xrotation
					JOINT RightToeBase
					{
						OFFSET -0.164730 -0.452590 2.363150
						CHANNELS 3 Zrotation Yrotation Xrotation
						End Site
						{
							OFFSET 0.000000 0.000000 0.000000
						}
					}
				}
			}
		}
	}
}
MOTION
Frames: 20
Frame Time: 0.008333
2.667383 16.949425 0.163769 3.455557 80.151637 15.329985 -10.563268 0.291930 3.131711 -5.444788 -6.585328 -37.661217 -0.078663 2.087379 49.880412 3.467842 18.455247 -14.131434 -1.766801 0.000001 -2.555100 7.771710 -1.826536 1.895918 16.274764 4.095001 -11.017644 2.823627 0.158259 19.262940 -2.693876 -5.821002 -23.001800 2.116701 0.000000 -5.178400
2.886064 17.018109 0.231319 8.006408 79.610728 19.836573 -10.240101 0.141742 3.220001 -6.247300 -7.005087 -37.059903 -0.288979 1.667573 44.866520 3.468329 18.247182 -13.026347 -1.348900 0.000000 -3.416300 8.023322 -1.904733 1.902636 15.035994 4.004268 -8.732831 2.743726 0.376852 16.104062 -2.498405 -5.642627 -21.395140 1.803100 0.000000 -6.312000
3.105768 17.079421 0.296373 11.299568 78.990417 23.032539 -9.895276 0.055507 3.274743 -7.022132 -7.137914 -36.286981 -0.515388 1.245556 39.605121 3.397627 17.782517 -11.648346 -0.835100 -0.000000 -4.689400 8.344878 -1.995829 1.906586 13.875824 3.820040 -6.463342 2.648793 0.566215 13.051482 -2.282946 -5.377937 -19.716878 1.481700 0.000000 -7.286700
3.326901 17.132131 0.357229 13.483698 78.291521 25.074528 -9.570531 0.027053 3.307119 -7.747303 -6.967178 -35.403246 -0.768542 0.830788 34.185595 3.253952 17.093657 -10.026444 -0.260800 -0.000000 -6.335200 8.690780 -2.102356 1.898873 12.815318 3.515624 -4.243096 2.551414 0.727287 10.164936 -2.046707 -4.982366 -18.009276 1.163600 -0.000000 -8.150300
3.549690 17.175448 0.412836 14.784461 77.532322 26.185547 -9.295695 0.038625 3.324191 -8.416835 -6.498993 -34.459175 -1.053751 0.424945 28.717512 3.042339 16.225503 -8.222408 0.326300 -0.000001 -8.216800 9.030097 -2.229409 1.866122 11.849029 3.029269 -2.100952 2.465987 0.859118 7.494635 -1.782728 -4.394798 -16.297756 0.857700 -0.000001 -9.070900
3.774641 17.208834 0.462158 15.344894 76.731769 26.521427 -9.091958 0.068005 3.327214 -9.016305 -5.730432 -33.537916 -1.368661 0.029966 23.346566 2.771475 15.202695 -6.325263 0.874400 -0.000000 -10.248700 9.335494 -2.379157 1.807089 10.982520 2.346738 -0.068154 2.404120 0.964253 5.070095 -1.491106 -3.592873 -14.593058 0.577799 0.000000 -10.202200
4.002285 17.232104 0.504769 15.288947 75.894150 26.232866 -8.969084 0.096317 3.308791 -9.548968 -4.648561 -32.744541 -1.705790 -0.348395 18.235716 2.453375 14.024580 -4.443369 1.332200 -0.000000 -12.380900 9.586160 -2.545667 1.725419 10.214975 1.491743 1.822602 2.371693 1.047453 2.909716 -1.177905 -2.587026 -12.896302 0.338400 0.000000 -11.715300
4.232710 17.245588 0.541002 14.795014 75.037492 25.503516 -8.920061 0.111213 3.260504 -10.056959 -3.248619 -32.156940 -2.056355 -0.705324 13.536973 2.100619 12.666784 -2.695343 1.652700 -0.000000 -14.542500 9.781594 -2.727541 1.626974 9.519088 0.469625 3.552732 2.369185 1.109173 1.026923 -0.847408 -1.384490 -11.189928 0.150600 0.000001 -13.855900
4.465815 17.249892 0.571602 14.031298 74.187291 24.503184 -8.926965 0.107057 3.177980 -10.597119 -1.544205 -31.838837 -2.413358 -1.036626 9.372528 1.725547 11.099280 -1.185253 1.804700 -0.000000 -16.711200 9.930627 -2.926023 1.524693 8.863399 -0.691862 5.108018 2.391890 1.148078 -0.570562 -0.509252 -0.016478 -9.457912 0.026400 0.000001 -16.814600
4.701472 17.245969 0.597455 13.131191 73.358441 23.381332 -8.966725 0.084191 3.065451 -11.212558 0.399013 -31.834638 -2.769950 -1.339326 5.808223 1.344722 9.332738 0.012260 1.785200 -0.000000 -18.885800 10.042055 -3.136300 1.428151 8.220636 -1.942547 6.470698 2.432113 1.163466 -1.877920 -0.176903 1.466039 -7.690549 -0.023400 -0.000000 -20.735000
4.939325 17.234851 0.619330 12.181252 72.568166 22.246375 -9.016712 0.044125 2.937942 -11.909815 2.455456 -32.154421 -3.115940 -1.613685 2.853450 0.979005 7.439763 0.853575 1.622900 0.000000 -21.030200 10.121609 -3.349647 1.345062 7.585300 -3.205370 7.632506 2.482115 1.157688 -2.893209 0.131855 2.991116 -5.937456 0.008499 -0.000000 -25.236099
5.178937 17.217558 0.637828 11.239552 71.836107 21.177152 -9.058735 -0.011314 2.823373 -12.644218 4.432690 -32.749361 -3.434464 -1.864237 0.447068 0.654517 5.580970 1.339117 1.379500 -0.000000 -23.076700 10.175584 -3.558184 1.274092 6.961818 -4.421435 8.591857 2.534713 1.131029 -3.621485 0.404930 4.488266 -4.218198 0.118900 0.000000 -30.270300
5.419853 17.194943 0.653287 10.300768 71.189663 20.180909 -9.086328 -0.081278 2.744303 -13.346386 6.181776 -33.561403 -3.710811 -2.092368 -1.455598 0.387570 3.893007 1.478549 1.113000 -0.000001 -24.875099 10.198954 -3.746212 1.208434 6.394483 -5.498712 9.169393 2.591711 1.058315 -3.634573 0.608903 5.873101 -2.860213 0.291300 -0.000000 -35.081300
5.661524 17.167833 0.666071 9.361413 70.645954 19.257161 -9.100009 -0.163538 2.716105 -13.931287 7.574446 -34.494479 -3.930610 -2.298069 -2.924508 0.190869 2.519226 1.316104 0.877000 -0.000000 -26.280901 10.196626 -3.914036 1.149935 5.907386 -6.399927 9.534471 2.644214 0.964305 -3.253263 0.745729 7.074638 -1.756771 0.498700 0.000000 -39.257400
5.903314 17.136794 0.676747 8.437352 70.217897 18.400223 -9.104200 -0.250406 2.727647 -14.377846 8.614823 -35.492507 -4.095405 -2.470303 -3.939379 0.058260 1.460399 0.882325 0.685200 0.000001 -27.166900 10.178633 -4.075393 1.102165 5.495102 -7.158393 10.014156 2.682127 0.889755 -3.132143 0.862890 8.064552 -0.542265 0.719300 0.000000 -43.101400
6.144767 17.102564 0.685978 7.537758 69.919302 17.599814 -9.105554 -0.338364 2.781840 -14.621352 9.254416 -36.448662 -4.198449 -2.606516 -4.562921 -0.006776 0.794737 0.263677 0.557100 -0.000000 -27.522300 10.147247 -4.227065 1.059193 5.168263 -7.750583 10.640954 2.705358 0.833314 -3.252080 0.972429 8.800383 0.696159 0.921000 0.000000 -46.078800
6.385494 17.065755 0.694552 6.698258 69.762912 16.856872 -9.108446 -0.419250 2.862727 -14.678887 9.548732 -37.323493 -4.248537 -2.695762 -4.763963 -0.015558 0.464650 -0.483787 0.479100 0.000000 -27.378000 10.107337 -4.368965 1.010200 4.910330 -8.209596 11.357505 2.714896 0.778052 -3.425796 1.071629 9.284139 1.879452 1.088901 0.000000 -48.604800
6.625359 17.027013 0.703211 5.948818 69.762420 16.174644 -9.116683 -0.488862 2.967713 -14.547079 9.505445 -38.062238 -4.247729 -2.734839 -4.565572 0.028354 0.468816 -1.280874 0.444700 -0.000000 -26.823900 10.059264 -4.485730 0.935552 4.718729 -8.529749 11.784901 2.714635 0.665050 -2.779694 1.091250 9.512988 2.523556 1.209300 0.000001 -50.800100
6.864535 16.986955 0.712625 5.307735 69.907794 15.569487 -9.131765 -0.542079 3.091584 -14.232138 9.130670 -38.641077 -4.195496 -2.720478 -4.000030 0.123386 0.807548 -2.053030 0.446200 0.000000 -25.966300 10.009818 -4.588728 0.847168 4.576458 -8.732256 12.243702 2.697325 0.539946 -2.006672 1.083299 9.485919 3.010983 1.275600 -0.000000 -52.763400
7.103432 16.946226 0.723298 4.794398 70.191137 15.058946 -9.152760 -0.574917 3.230319 -13.770211 8.452226 -39.070691 -4.095518 -2.651331 -3.083142 0.263638 1.446720 -2.739530 0.475000 0.000000 -24.909900 9.961572 -4.679435 0.747542 4.473712 -8.829301 12.740023 2.662214 0.403508 -1.138029 1.051381 9.222547 3.394506 1.291600 0.000000 -54.753900
